<?xml version="1.0" encoding="utf-8"?>
<!-- Generator: Adobe Illustrator 26.0.2, SVG Export Plug-In . SVG Version: 6.00 Build 0)  -->
<svg version="1.1" id="Layer_1" xmlns="http://www.w3.org/2000/svg" xmlns:xlink="http://www.w3.org/1999/xlink" x="0px"
     y="0px"
     viewBox="0 0 1000 1000" style="enable-background:new 0 0 1000 1000;" xml:space="preserve">
<style type="text/css">
	.st0{fill:none;stroke:url(#SVGID_1_);stroke-width:19;}
	.st1{fill-rule:evenodd;clip-rule:evenodd;fill:url(#SVGID_00000016065424813310436120000012706723358220760756_);}
	.st2{fill-rule:evenodd;clip-rule:evenodd;fill:url(#SVGID_00000084499729996758983480000005146490393638202759_);}
	.st3{fill-rule:evenodd;clip-rule:evenodd;fill:url(#SVGID_00000028291801400737049470000014723989634702483362_);}
	.st4{fill-rule:evenodd;clip-rule:evenodd;fill:url(#SVGID_00000112611863078977567200000005583459695798110880_);}
	.st5{fill:#6D6E71;}
	.st6{fill:#FFFFFF;}

</style>
    <g>
	
		<linearGradient id="SVGID_1_" gradientUnits="userSpaceOnUse" x1="190.8097" y1="865.3772" x2="1032.225"
                        y2="241.8593" gradientTransform="matrix(1 0 0 -1 0 1001.1498)">
		<stop offset="0" style="stop-color:#00FFAA"/>
            <stop offset="0.5173" style="stop-color:#4579F5"/>
            <stop offset="0.9998" style="stop-color:#9C42F5"/>
	</linearGradient>
        <path class="st0" d="M502.5,529.4v412.4L637.8,837c20-15.9,35.2-40.1,35.2-65.6V463.4c0-19.8-15.2-37.8-33.4-45.9l-115.8-46.6
		 M502.5,529.4L268.3,398.6c-15.1-8.4-6.8-27.8,10.4-27.8h245.1 M502.5,529.4l125.6,74c25.6,15.1,44.9,44.4,44.9,74.1v42.3
		 M864.8,52.8l35.7,80.3c9,20.2,5.9,43.7-8.1,60.8l-113.8,143c-16,19.7-37.7,34.1-63,34H523.8 M730.5,191l130.3-2.8
		c29.9-0.6,49.5-31.4,37.5-58.7l-33.6-76.8L730.5,191 M359,449.3l-95.1-53.2c-18.1-10.3-22.8-30.4-9.6-46.5l112.9-140.2
		c9.6-11.6,23.8-18.4,38.9-18.4l326.1,0"/>
</g>
    <g>
	<g>
		<g>
			
				<linearGradient id="SVGID_00000085231613596152178300000013748943642066638726_"
                                gradientUnits="userSpaceOnUse" x1="57.386" y1="691.1832" x2="431.9379" y2="691.1832">
				<stop offset="0" style="stop-color:#00FFAA"/>
                    <stop offset="0.5173" style="stop-color:#4579F5"/>
                    <stop offset="0.9998" style="stop-color:#9C42F5"/>
			</linearGradient>
            <path style="fill-rule:evenodd;clip-rule:evenodd;fill:url(#SVGID_00000085231613596152178300000013748943642066638726_);"
                  d="
				M244.7,878.5c103.2,0,187.3-84.2,187.3-187.3c0-103.2-84.1-187.3-187.3-187.3c-103.2,0-187.3,84.1-187.3,187.3
				C57.4,794.3,141.5,878.5,244.7,878.5z"/>

            <linearGradient id="SVGID_00000153701407322189986480000000469609476399053498_"
                            gradientUnits="userSpaceOnUse" x1="90.0641" y1="691.1832" x2="399.2609" y2="691.1832">
				<stop offset="0" style="stop-color:#F5F7FA;stop-opacity:0.12"/>
                <stop offset="0.5214" style="stop-color:#F5F7FA;stop-opacity:6.000000e-02"/>
                <stop offset="1" style="stop-color:#F5F7FA;stop-opacity:1.000000e-02"/>
			</linearGradient>
            <path style="fill-rule:evenodd;clip-rule:evenodd;fill:url(#SVGID_00000153701407322189986480000000469609476399053498_);"
                  d="
				M244.7,536.6c85.4,0,154.6,69.2,154.6,154.6c0,85.3-69.2,154.6-154.6,154.6c-85.4,0-154.6-69.2-154.6-154.6
				C90.1,605.8,159.3,536.6,244.7,536.6z"/>

            <linearGradient id="SVGID_00000044883753859114093890000005652681150285366678_"
                            gradientUnits="userSpaceOnUse" x1="98.4286" y1="691.17" x2="390.8698" y2="691.17">
				<stop offset="0" style="stop-color:#00FFAA"/>
                <stop offset="0.5173" style="stop-color:#4579F5"/>
                <stop offset="0.9998" style="stop-color:#9C42F5"/>
			</linearGradient>
            <path style="fill-rule:evenodd;clip-rule:evenodd;fill:url(#SVGID_00000044883753859114093890000005652681150285366678_);"
                  d="
				M244.7,545c80.8,0,146.2,65.5,146.2,146.2c0,80.7-65.5,146.2-146.2,146.2c-80.7,0-146.2-65.5-146.2-146.2
				C98.4,610.4,163.9,545,244.7,545z"/>

            <linearGradient id="SVGID_00000036936857104451073900000011718319669526684071_"
                            gradientUnits="userSpaceOnUse" x1="125.1512" y1="408.878" x2="353.0182" y2="947.1481">
				<stop offset="0" style="stop-color:#F5F7FA;stop-opacity:0.12"/>
                <stop offset="0.5214" style="stop-color:#F5F7FA;stop-opacity:6.000000e-02"/>
                <stop offset="1" style="stop-color:#F5F7FA;stop-opacity:1.000000e-02"/>
			</linearGradient>
            <path style="fill-rule:evenodd;clip-rule:evenodd;fill:url(#SVGID_00000036936857104451073900000011718319669526684071_);"
                  d="
				M244.7,549c78.5,0,142.2,63.7,142.2,142.2c0,78.5-63.7,142.2-142.2,142.2c-78.5,0-142.2-63.7-142.2-142.2
				C102.5,612.7,166.1,549,244.7,549z"/>
            <g>
				<path class="st5" d="M299.9,679.6c12.4-8.1,18.8-21.4,17.2-36.5c-2.4-21.7-20.7-35.1-49.2-36.2l-3.5-32.3l-0.3-2.9l-2.9,0.3
					l-18.7,2.1l-2.9,0.3l0.3,2.9l3.4,31.2l-14,1.5l-3.4-31.2l-0.3-2.9l-2.9,0.3l-18.7,2l-2.9,0.3l0.3,2.9l3.5,31.6l-57.4,6.3
					L151,651l21.5-2.4c3.1-0.3,5.9,1.9,6.3,5l9.7,88.6c0.4,4-2.4,7.5-6.4,8l-20.5,2.2l3.2,29.6l58-6.4l3.4,31l0.3,2.9l2.9-0.3
					l18.7-2l2.9-0.3l-0.3-2.9l-3.4-31l14.1-1.5l3.4,31l0.3,2.9l2.9-0.3l18.7-2l2.9-0.3l-0.3-2.9l-3.5-31.8
					c14.5-3.4,26.3-9.5,34.1-17.9c8.6-9.1,12.3-20.6,11-33.3C328.6,698.1,316.9,684.2,299.9,679.6z M283,717.1
					c0.5,4.5-0.4,15.1-19.6,17.2l-29.5,3.2l-3.2-29.1l29.5-3.2C273.6,703.7,282.1,708.2,283,717.1z M227,673.9l-2.9-26.6l29.5-3.2
					c10.3-1.1,16.8,3,17.7,11.3c0.9,8.5-4.6,14.2-14.8,15.3L227,673.9z"/>
			</g>
            <g>
				<path class="st5" d="M304.9,679c12.4-8.1,18.8-21.4,17.2-36.5c-2.4-21.7-20.7-35.1-49.2-36.2l-3.5-32.3l-0.3-2.9l-2.9,0.3
					l-18.7,2.1l-2.9,0.3l0.3,2.9l3.4,31.2l-14,1.5l-3.4-31.2l-0.3-2.9l-2.9,0.3l-18.7,2l-2.9,0.3l0.3,2.9l3.5,31.6l-57.4,6.3
					l3.5,31.7l21.5-2.4c3.1-0.3,5.9,1.9,6.3,5l9.7,88.6c0.4,4-2.4,7.5-6.4,8l-20.5,2.2l3.2,29.6l58-6.4l3.4,31l0.3,2.9l2.9-0.3
					l18.7-2l2.9-0.3l-0.3-2.9l-3.4-31l14.1-1.5l3.4,31l0.3,2.9l2.9-0.3l18.7-2l2.9-0.3l-0.3-2.9l-3.5-31.8
					c14.5-3.4,26.3-9.5,34.1-17.9c8.6-9.1,12.3-20.6,11-33.3C333.6,697.5,321.8,683.6,304.9,679z M288,716.5
					c0.5,4.5-0.4,15.1-19.6,17.2l-29.5,3.2l-3.2-29.1l29.5-3.2C278.5,703.2,287,707.6,288,716.5z M232,673.3l-2.9-26.6l29.5-3.2
					c10.3-1.1,16.8,3,17.7,11.3c0.9,8.5-4.6,14.2-14.8,15.3L232,673.3z"/>
			</g>
            <g>
				<path class="st6" d="M300.6,680c11.9-7.9,18.1-21.1,16.5-36c-2.3-21.4-20-34.7-47.5-35.9l-3.5-31.9l-0.3-2.8l-2.8,0.3l-18,2
					l-2.8,0.3l0.3,2.8l3.4,30.8l-13.5,1.5l-3.4-30.8l-0.3-2.8l-2.8,0.3l-18,2l-2.8,0.3l0.3,2.8l3.4,31.2l-55.3,6.1l3.4,31.3
					l20.7-2.3c3-0.3,5.7,1.9,6,5l9.6,87.5c0.4,3.9-2.3,7.4-6.1,7.9l-19.8,2.2l3.2,29.2l55.9-6.1l3.4,30.6l0.3,2.8l2.8-0.3l18-2
					l2.8-0.3l-0.3-2.8l-3.4-30.6l13.5-1.5l3.4,30.6l0.3,2.8l2.8-0.3l18-2l2.8-0.3l-0.3-2.8l-3.4-31.4c14-3.3,25.3-9.3,32.8-17.6
					c8.2-9,11.8-20.3,10.5-32.8C328.3,698.3,316.9,684.6,300.6,680z M284.4,717c0.5,4.4-0.4,14.9-18.8,17l-28.4,3.1l-3.1-28.8
					l28.4-3.1C275.2,703.8,283.4,708.2,284.4,717z M230.3,674.2l-2.9-26.3l28.4-3.1c9.9-1.1,16.2,3,17.1,11.2
					c0.9,8.4-4.4,14-14.2,15.1L230.3,674.2z"/>
			</g>
		</g>
	</g>
</g>
</svg>
